<svg xmlns="http://www.w3.org/2000/svg" xmlns:xlink="http://www.w3.org/1999/xlink" viewBox="0 0 640 480">
  <g fill-rule="evenodd">
    <g stroke-width="1pt">
      <path fill="#bd3d44" d="M0 0h640v480H0z"/>
      <path fill="#fff" d="M0 37h640v37H0zm0 74h640v37H0zm0 73h640v37H0zm0 74h640v37H0zm0 74h640v37H0zm0 73h640v37H0z"/>
    </g>
    <path fill="#192f5d" d="M0 0h256v258.5H0z"/>
    <g fill="#fff">
      <g id="us-d">
        <g id="us-c">
          <g id="us-b">
            <g id="us-a" transform="translate(130.4 193.3) scale(.8)">
              <path d="M0-22l6.5 20h21.1l-17 12.3 6.5 20-17.1-12.4-17.1 12.4 6.5-20-17-12.3h21.1z"/>
            </g>
            <use xlink:href="#us-a" href="#us-a" x="65.2"/>
          </g>
          <use xlink:href="#us-b" href="#us-b" x="130.4"/>
        </g>
        <use xlink:href="#us-c" href="#us-c" x="260.8"/>
      </g>
      <use xlink:href="#us-d" href="#us-d" y="-86.2"/>
      <use xlink:href="#us-d" href="#us-d" y="-172.4"/>
      <g id="us-e" transform="translate(163 150.2) scale(.8)">
        <path d="M0-22l6.5 20h21.1l-17 12.3 6.5 20-17.1-12.4-17.1 12.4 6.5-20-17-12.3h21.1z"/>
      </g>
      <use xlink:href="#us-e" href="#us-e" x="65.2"/>
      <use xlink:href="#us-e" href="#us-e" x="130.4"/>
      <use xlink:href="#us-e" href="#us-e" x="195.6"/>
      <use xlink:href="#us-e" href="#us-e" x="260.8"/>
      <use xlink:href="#us-e" href="#us-e" y="-86.2"/>
      <use xlink:href="#us-e" href="#us-e" x="65.2" y="-86.2"/>
      <use xlink:href="#us-e" href="#us-e" x="130.4" y="-86.2"/>
      <use xlink:href="#us-e" href="#us-e" x="195.6" y="-86.2"/>
      <use xlink:href="#us-e" href="#us-e" x="260.8" y="-86.2"/>
    </g>
  </g>
</svg>